<svg width="70" height="70" viewBox="0 0 70 70" fill="none" xmlns="http://www.w3.org/2000/svg">
<g opacity="0.35">
<path d="M34.5008 33.7193C39.1332 33.7193 43.144 32.0578 46.4221 28.7798C49.699 25.5023 51.361 21.492 51.361 16.8591C51.361 12.2278 49.6996 8.21699 46.4215 4.93842C43.1435 1.66145 39.1327 0 34.5008 0C29.8679 0 25.8576 1.66145 22.5801 4.93895C19.3026 8.21646 17.6406 12.2272 17.6406 16.8591C17.6406 21.492 19.3026 25.5028 22.5801 28.7803C25.8587 32.0573 29.8695 33.7193 34.5008 33.7193ZM25.4811 7.83942C27.996 5.32454 30.9461 4.10209 34.5008 4.10209C38.055 4.10209 41.0056 5.32454 43.5211 7.83942C46.0359 10.3548 47.2589 13.3055 47.2589 16.8591C47.2589 20.4138 46.0359 23.3639 43.5211 25.8793C41.0056 28.3947 38.055 29.6172 34.5008 29.6172C30.9472 29.6172 27.9971 28.3942 25.4811 25.8793C22.9657 23.3644 21.7427 20.4138 21.7427 16.8591C21.7427 13.3055 22.9657 10.3548 25.4811 7.83942Z" fill="#FF0000"/>
<path d="M64.002 53.8263C63.9075 52.4623 63.7163 50.9744 63.4348 49.4032C63.1507 47.8203 62.7849 46.3238 62.347 44.9561C61.8941 43.5425 61.2794 42.1465 60.5183 40.8086C59.7295 39.4201 58.8024 38.211 57.7621 37.216C56.6742 36.1752 55.3423 35.3383 53.802 34.7279C52.2672 34.1207 50.5662 33.813 48.7466 33.813C48.0321 33.813 47.341 34.1062 46.0064 34.9751C45.185 35.5108 44.2242 36.1303 43.1519 36.8155C42.2349 37.3998 40.9927 37.9472 39.4583 38.4428C37.9613 38.9272 36.4414 39.1728 34.9407 39.1728C33.4411 39.1728 31.9212 38.9272 30.4231 38.4428C28.8904 37.9477 27.6476 37.4003 26.7323 36.816C25.67 36.1372 24.7087 35.5177 23.875 34.9746C22.5415 34.1057 21.8504 33.8125 21.1359 33.8125C19.3158 33.8125 17.6154 34.1207 16.081 34.7284C14.5419 35.3378 13.2094 36.1746 12.1204 37.2166C11.0801 38.2121 10.153 39.4206 9.3647 40.8086C8.60474 42.1465 7.9895 43.5419 7.53662 44.9567C7.09923 46.3244 6.7334 47.8203 6.44928 49.4032C6.1673 50.9723 5.97664 52.4607 5.88211 53.8279C5.78918 55.1646 5.74219 56.5558 5.74219 57.9615C5.74219 61.6155 6.90376 64.5736 9.19434 66.7553C11.4566 68.908 14.4495 69.9996 18.0901 69.9996H51.7956C55.4352 69.9996 58.428 68.908 60.6908 66.7553C62.9819 64.5752 64.1435 61.616 64.1435 57.9609C64.143 56.5505 64.0955 55.1593 64.002 53.8263ZM57.8625 63.7832C56.3676 65.206 54.3831 65.8976 51.795 65.8976H18.0901C15.5016 65.8976 13.517 65.206 12.0227 63.7838C10.5567 62.3883 9.84428 60.4833 9.84428 57.9615C9.84428 56.6498 9.88754 55.3547 9.97406 54.1115C10.0584 52.8917 10.2309 51.5517 10.4868 50.1279C10.7394 48.7218 11.0609 47.4021 11.4433 46.2074C11.8102 45.0619 12.3106 43.9275 12.9311 42.8349C13.5234 41.7934 14.2049 40.9 14.9568 40.1801C15.6602 39.5066 16.5467 38.9555 17.5913 38.5421C18.5574 38.1597 19.6432 37.9504 20.8218 37.9189C20.9655 37.9952 21.2213 38.141 21.6357 38.4113C22.479 38.9608 23.451 39.5878 24.5255 40.2741C25.7368 41.0463 27.2973 41.7438 29.1617 42.3457C31.0677 42.962 33.0117 43.2749 34.9413 43.2749C36.8708 43.2749 38.8153 42.962 40.7203 42.3462C42.5863 41.7432 44.1463 41.0463 45.3591 40.273C46.4587 39.5702 47.4035 38.9613 48.2468 38.4113C48.6612 38.1416 48.917 37.9952 49.0607 37.9189C50.2399 37.9504 51.3256 38.1597 52.2923 38.5421C53.3363 38.9555 54.2229 39.5071 54.9262 40.1801C55.6782 40.8994 56.3596 41.7929 56.9519 42.8354C57.573 43.9275 58.074 45.0624 58.4403 46.2069C58.8232 47.4032 59.1453 48.7223 59.3974 50.1274C59.6526 51.5539 59.8257 52.8943 59.91 54.112V54.1131C59.9971 55.3515 60.0409 56.6461 60.0414 57.9615C60.0409 60.4838 59.3285 62.3883 57.8625 63.7832Z" fill="#FF0000"/>
</g>
</svg>
