<svg width="70" height="70" viewBox="0 0 70 70" fill="none" xmlns="http://www.w3.org/2000/svg">
<g clip-path="url(#clip0)">
<path d="M44.9827 8.64976C44.2792 3.71886 39.9872 0 34.9996 0C31.792 0 28.7458 1.54782 26.8518 4.14188C26.4649 4.67091 26.5806 5.41301 27.1097 5.79988C27.637 6.18535 28.3808 6.071 28.767 5.54127C30.2168 3.55758 32.5463 2.37299 34.9993 2.37299C38.8137 2.37299 42.0953 5.21558 42.6334 8.98449C42.7182 9.57644 43.226 10.0036 43.8068 10.0036C43.8621 10.0036 43.9191 9.99945 43.9757 9.99181C44.6244 9.899 45.0752 9.29802 44.9827 8.64976Z" fill="#FF0000" fill-opacity="0.4"/>
<path d="M62.1181 21.9316L58.5588 15.9993C58.3446 15.6416 57.9585 15.4233 57.5414 15.4233H54.1305C53.4756 15.4233 52.9441 15.9548 52.9441 16.6097C52.9441 17.2645 53.4756 17.796 54.1305 17.796H56.8698L59.0054 21.3553H10.9925L13.1281 17.796H14.3847C15.0395 17.796 15.571 17.2645 15.571 16.6097C15.571 15.9548 15.0395 15.4233 14.3847 15.4233H12.4566C12.0395 15.4233 11.6533 15.6416 11.4392 15.9993L7.87987 21.9316C7.65984 22.2987 7.65463 22.755 7.86492 23.127C8.07521 23.4989 8.46938 23.729 8.89726 23.729H61.1007C61.5286 23.729 61.9224 23.4989 62.133 23.127C62.3437 22.755 62.3381 22.298 62.1181 21.9316Z" fill="#FF0000" fill-opacity="0.4"/>
<path d="M56.2045 10.9918C56.0384 10.7238 55.7732 10.5336 55.4666 10.462L39.2929 6.67922C38.9867 6.60727 38.6641 6.6608 38.3965 6.82625C38.1295 6.9924 37.939 7.25761 37.8674 7.56418L36.6477 12.778C36.4983 13.4159 36.8945 14.054 37.5327 14.2028C38.1705 14.3523 38.8094 13.956 38.9582 13.3178L39.9078 9.25972L53.7707 12.5024L51.5924 21.816C51.4429 22.4539 51.8391 23.092 52.4773 23.2408C52.5687 23.262 52.6595 23.2721 52.7491 23.2721C53.2879 23.2721 53.7756 22.903 53.9024 22.3562L56.3512 11.8875C56.4235 11.5813 56.3707 11.2587 56.2045 10.9918Z" fill="#FF0000" fill-opacity="0.4"/>
<path d="M35.6264 13.7967L34.5454 4.65341C34.5086 4.34092 34.349 4.05555 34.1015 3.8609C33.854 3.66625 33.5416 3.57727 33.2277 3.61411L13.3838 5.95965C12.7335 6.03681 12.2684 6.62632 12.3452 7.27736L14.1475 22.5272C14.2191 23.1309 14.7311 23.5748 15.3244 23.5748C15.3706 23.5748 15.4182 23.5717 15.4655 23.5664C16.1155 23.4893 16.5806 22.8998 16.5041 22.2487L14.8409 8.17622L32.3285 6.10946L33.2697 14.0745C33.3469 14.7252 33.9336 15.1875 34.5875 15.1138C35.2378 15.0373 35.7029 14.4474 35.6264 13.7967Z" fill="#FF0000" fill-opacity="0.4"/>
<path d="M45.0103 22.0912L42.6554 12.2982C42.5817 11.9927 42.3895 11.7282 42.1215 11.5638C41.8535 11.4008 41.532 11.3497 41.2244 11.4227L22.1115 16.0192C21.4744 16.1721 21.0823 16.8131 21.2352 17.4502L22.4122 22.345C22.5651 22.9828 23.206 23.3752 23.8428 23.2212C24.48 23.0683 24.872 22.4273 24.7191 21.7902L23.8192 18.0488L40.6251 14.0077L42.7027 22.6467C42.833 23.1906 43.3197 23.5556 43.8553 23.5556C43.9474 23.5556 44.0406 23.5448 44.1341 23.5222C44.7712 23.369 45.1633 22.7283 45.0103 22.0912Z" fill="#FF0000" fill-opacity="0.4"/>
<path d="M62.2874 22.4819C62.2547 21.8514 61.734 21.3564 61.1021 21.3564H8.8987C8.26679 21.3564 7.7461 21.8511 7.71342 22.4819L5.34043 68.753C5.32375 69.0777 5.44123 69.3954 5.66508 69.6311C5.88927 69.8664 6.20002 70.0002 6.52536 70.0002H63.4744C63.7994 70.0002 64.1105 69.8667 64.3358 69.6311C64.5592 69.3954 64.6767 69.078 64.6604 68.753L62.2874 22.4819ZM7.7739 67.6272L10.0252 23.7291H59.9742L62.2255 67.6272H7.7739Z" fill="#FF0000" fill-opacity="0.4"/>
<path d="M43.8982 26.1016C41.9353 26.1016 40.3389 27.698 40.3389 29.6609C40.3389 31.6237 41.9353 33.2202 43.8982 33.2202C45.861 33.2202 47.4575 31.6237 47.4575 29.6609C47.4575 27.698 45.861 26.1016 43.8982 26.1016ZM43.8982 30.8475C43.2437 30.8475 42.7119 30.3154 42.7119 29.6612C42.7119 29.0071 43.244 28.4749 43.8982 28.4749C44.5523 28.4749 45.0845 29.0071 45.0845 29.6612C45.0845 30.3154 44.5523 30.8475 43.8982 30.8475Z" fill="#FF0000" fill-opacity="0.4"/>
<path d="M26.1013 26.1016C24.1385 26.1016 22.542 27.698 22.542 29.6609C22.542 31.6237 24.1385 33.2202 26.1013 33.2202C28.0641 33.2202 29.6606 31.6237 29.6606 29.6609C29.6606 27.698 28.0641 26.1016 26.1013 26.1016ZM26.1013 30.8475C25.4471 30.8475 24.915 30.3154 24.915 29.6612C24.915 29.0071 25.4471 28.4749 26.1013 28.4749C26.7555 28.4749 27.2876 29.0071 27.2876 29.6612C27.2876 30.3154 26.7555 30.8475 26.1013 30.8475Z" fill="#FF0000" fill-opacity="0.4"/>
<path d="M43.8979 29.6606H43.8065C43.1517 29.6606 42.6202 30.1921 42.6202 30.847C42.6202 31.0089 42.6522 31.1636 42.7116 31.3044V37.3723C42.7116 41.6243 39.2521 45.0842 34.9997 45.0842C30.7472 45.0842 27.2877 41.6247 27.2877 37.3723V30.8473C27.2877 30.1925 26.7562 29.661 26.1014 29.661C25.4465 29.661 24.915 30.1925 24.915 30.8473V37.3726C24.915 42.9333 29.4389 47.4572 34.9997 47.4572C40.5604 47.4572 45.0843 42.9333 45.0843 37.3726V30.8473C45.0843 30.1925 44.5528 29.6606 43.8979 29.6606Z" fill="#FF0000" fill-opacity="0.4"/>
</g>
<defs>
<clipPath id="clip0">
<rect width="70" height="70" fill="white"/>
</clipPath>
</defs>
</svg>
