<svg xmlns="http://www.w3.org/2000/svg" viewBox="0 0 64 64"><defs><style>.cls-1{fill:#d0d7dc;}.cls-2{fill:#6e6e79;}.cls-3{fill:#7c828d;}.cls-4{fill:#ffd7a3;}.cls-5{fill:#b5e0f0;}.cls-6{fill:#4ea0ca;}.cls-7{fill:#29394a;}</style></defs><title>21-shopping list</title><g id="_21-shopping_list" data-name="21-shopping list"><path class="cls-1" d="M49,63H3V1H41l8,8Z"/><path class="cls-2" d="M49,9H43a2.006,2.006,0,0,1-2-2V1Z"/><rect class="cls-3" x="14" y="28" width="6" height="7"/><rect class="cls-3" x="14" y="6" width="6" height="7"/><polygon class="cls-4" points="26 28 26 46 8 46 8 28 14 28 14 35 20 35 20 28 26 28"/><polygon class="cls-4" points="26 6 26 24 8 24 8 6 14 6 14 13 20 13 20 6 26 6"/><circle class="cls-5" cx="39" cy="55" r="3"/><circle class="cls-5" cx="58" cy="55" r="3"/><polygon class="cls-5" points="59.63 44 59 49 54 49 54.31 44 59.63 44"/><polygon class="cls-5" points="48 44 48 49 42 49 41.69 44 48 44"/><polygon class="cls-5" points="41.31 38 41.69 44 36.38 44 35.63 38 41.31 38"/><polygon class="cls-5" points="48 33 48 38 41.31 38 41 33 48 33"/><polygon class="cls-5" points="54.69 38 54.31 44 48 44 48 38 54.69 38"/><polygon class="cls-5" points="61 33 60.38 38 54.69 38 55 33 61 33"/><polygon class="cls-6" points="60.38 38 59.63 44 54.31 44 54.69 38 60.38 38"/><polygon class="cls-6" points="55 33 54.69 38 48 38 48 33 49 33 55 33"/><polygon class="cls-6" points="54.31 44 54 49 48 49 48 44 54.31 44"/><polygon class="cls-6" points="48 38 48 44 41.69 44 41.31 38 48 38"/><polygon class="cls-6" points="41.69 44 42 49 37 49 36.38 44 41.69 44"/><polygon class="cls-6" points="41 33 41.31 38 35.63 38 35 33 41 33"/><path class="cls-7" d="M48,62H4V2H40V7a3,3,0,0,0,3,3h5V30h2V9a1,1,0,0,0-.293-.707l-8-8A1,1,0,0,0,41,0H3A1,1,0,0,0,2,1V63a1,1,0,0,0,1,1H49a1,1,0,0,0,1-1V58H48ZM42,7V3.414L46.586,8H43A1,1,0,0,1,42,7Z"/><path class="cls-7" d="M58,51a4,4,0,0,0-3.858,3H42.858a3.981,3.981,0,0,0-7.716,0H35a2,2,0,0,1,0-4H59a1,1,0,0,0,.992-.875l2-16A1,1,0,0,0,61,32H35.535l-1.7-2.555A1,1,0,0,0,33,29H29v2h3.465l1.572,2.358L35.867,48H35a4,4,0,0,0,0,8h.142a3.981,3.981,0,0,0,7.716,0H54.142A3.993,3.993,0,1,0,58,51Zm-4.627-8H49V39h4.623Zm2.254-4h3.616l-.5,4H55.377ZM49,45h4.248l-.187,3H49Zm-2,3H42.939l-.187-3H47Zm2-11V34h4.936l-.188,3Zm-2,0H42.252l-.188-3H47Zm0,2v4H42.627l-.25-4Zm-6.377,4H37.259l-.5-4h3.614Zm.125,2,.188,3H37.884l-.375-3Zm14.316,3,.188-3h3.241l-.375,3Zm4.429-11H55.752l.187-3h3.929ZM40.061,34l.187,3H36.509l-.375-3ZM39,57a2,2,0,1,1,2-2A2,2,0,0,1,39,57Zm19,0a2,2,0,1,1,2-2A2,2,0,0,1,58,57Z"/><path class="cls-7" d="M27,6a1,1,0,0,0-1-1H8A1,1,0,0,0,7,6V24a1,1,0,0,0,1,1H26a1,1,0,0,0,1-1ZM15,7h4v5H15ZM25,23H9V7h4v6a1,1,0,0,0,1,1h6a1,1,0,0,0,1-1V7h4Z"/><path class="cls-7" d="M26,27H8a1,1,0,0,0-1,1V46a1,1,0,0,0,1,1H26a1,1,0,0,0,1-1V28A1,1,0,0,0,26,27ZM15,29h4v5H15ZM25,45H9V29h4v6a1,1,0,0,0,1,1h6a1,1,0,0,0,1-1V29h4Z"/><rect class="cls-7" x="32" y="13" width="13" height="2"/><rect class="cls-7" x="30" y="18" width="15" height="2"/><rect class="cls-7" x="30" y="23" width="15" height="2"/></g></svg>