<?xml version="1.0" encoding="iso-8859-1"?>
<!-- Generator: Adobe Illustrator 19.0.0, SVG Export Plug-In . SVG Version: 6.00 Build 0)  -->
<svg version="1.1" id="Layer_1" xmlns="http://www.w3.org/2000/svg" xmlns:xlink="http://www.w3.org/1999/xlink" x="0px" y="0px"
	 viewBox="0 0 512 512" style="enable-background:new 0 0 512 512;" xml:space="preserve">
<path style="fill:#328777;" d="M430.553,54.589v429.097c0,12.203-11.223,22.186-24.939,22.186H110.216
	c-13.717,0-24.94-9.983-24.94-22.186V54.589"/>
<path style="fill:#4BCDB2;" d="M407.789,478.199H108.04c-12.52,0-22.764-10.244-22.764-22.764V32.158
	c0-12.52,10.244-22.764,22.764-22.764h299.748c12.52,0,22.764,10.244,22.764,22.764v423.278
	C430.553,467.955,420.309,478.199,407.789,478.199z"/>
<polygon style="fill:#FFFFFF;" points="286.585,10.889 150.807,481.538 232.779,481.538 368.556,10.889 "/>
<path style="fill:#D3FDF9;" d="M325.769,413.223l58.654-54.966V86.241c0-6.857-5.56-12.417-12.417-12.417H342.26h-2.579H189.783
	h-34.932c-6.857,0-12.417,5.56-12.417,12.417v314.564c0,6.857,5.56,12.417,12.417,12.417h170.918"/>
<g>
	<path style="fill:#328777;" d="M384.422,358.256h-46.237c-6.857,0-12.417,5.56-12.417,12.417v42.55L384.422,358.256z"/>
	<path style="fill:#328777;" d="M321.057,103.598H208.409c-10.244,0-18.625-8.381-18.625-18.625V62.676
		c0-10.244,8.381-18.625,18.625-18.625h112.648c10.244,0,18.625,8.381,18.625,18.625v22.297
		C339.682,95.217,331.301,103.598,321.057,103.598z"/>
</g>
<path style="fill:#1F544A;" d="M339.626,62.676c0-10.244-8.381-18.625-18.625-18.625H208.353c-10.244,0-18.625,8.381-18.625,18.625
	v11.148h149.899V62.676H339.626z"/>
<g>
	<path style="fill:#50000F;" d="M152.936,419.35h170.918h0.001h0.001c0.25,0,0.502-0.013,0.751-0.038
		c0.097-0.009,0.191-0.027,0.287-0.04c0.15-0.021,0.3-0.039,0.448-0.068c0.114-0.022,0.225-0.052,0.336-0.079
		c0.128-0.031,0.258-0.061,0.385-0.099c0.114-0.034,0.226-0.073,0.337-0.113c0.122-0.042,0.244-0.085,0.364-0.133
		c0.11-0.044,0.217-0.094,0.324-0.144c0.118-0.054,0.235-0.109,0.351-0.169c0.106-0.055,0.208-0.115,0.31-0.174
		c0.111-0.065,0.221-0.129,0.33-0.201c0.103-0.067,0.203-0.139,0.302-0.21c0.101-0.072,0.202-0.146,0.299-0.224
		c0.101-0.081,0.198-0.165,0.295-0.25c0.061-0.054,0.125-0.101,0.184-0.156l58.654-54.966c0.03-0.028,0.055-0.059,0.084-0.087
		c0.106-0.101,0.205-0.209,0.304-0.317c0.076-0.082,0.152-0.161,0.224-0.246c0.1-0.118,0.194-0.242,0.287-0.366
		c0.06-0.08,0.122-0.157,0.179-0.239c0.101-0.147,0.194-0.3,0.285-0.453c0.038-0.065,0.081-0.127,0.118-0.194
		c0.106-0.19,0.201-0.387,0.291-0.587c0.016-0.033,0.033-0.065,0.049-0.099c0.408-0.943,0.635-1.982,0.635-3.074V84.61
		c0-11.126-9.052-20.177-20.177-20.177h-24.564v-3.387c0-14.549-11.836-26.386-26.386-26.386H206.492
		c-14.549,0-26.386,11.836-26.386,26.386v3.387h-27.171c-11.126,0-20.177,9.052-20.177,20.177v314.564
		C132.759,410.298,141.81,419.35,152.936,419.35z M331.613,393.683V369.04c0-2.567,2.089-4.656,4.656-4.656h26.607L331.613,393.683z
		 M195.629,61.045c0-5.991,4.874-10.865,10.865-10.865h112.648c5.991,0,10.865,4.874,10.865,10.865v22.297
		c0,5.991-4.874,10.865-10.865,10.865H206.492c-5.991,0-10.865-4.874-10.865-10.865V61.045H195.629z M148.28,84.61
		c0-2.567,2.089-4.656,4.656-4.656h27.171v3.388c0,14.549,11.836,26.386,26.386,26.386h112.648
		c14.549,0,26.386-11.836,26.386-26.386v-3.388h24.564c2.567,0,4.656,2.089,4.656,4.656v264.253H336.27
		c-11.126,0-20.177,9.052-20.177,20.177v34.789H152.936c-2.567,0-4.656-2.089-4.656-4.656V84.61z"/>
	<path style="fill:#50000F;" d="M405.872,0H106.126C89.295,0,75.601,13.693,75.601,30.525v22.432v400.846v28.252
		c0,16.512,14.67,29.945,32.701,29.945h295.397c18.031,0,32.701-13.433,32.701-29.945v-28.252V52.957V30.525
		C436.398,13.693,422.706,0,405.872,0z M91.122,30.525c0-8.273,6.731-15.004,15.004-15.004h299.749
		c8.273,0,15.004,6.731,15.004,15.004v22.432v400.846c0,8.273-6.731,15.004-15.004,15.004H106.126
		c-8.273,0-15.004-6.731-15.004-15.004V52.957V30.525z M403.698,496.479H108.301c-9.313,0-17.18-6.606-17.18-14.424v-1.684
		c4.435,2.514,9.553,3.958,15.004,3.958h299.749c5.452,0,10.569-1.443,15.004-3.958v1.684
		C420.877,489.873,413.01,496.479,403.698,496.479z"/>
	<path style="fill:#50000F;" d="M180.888,174.307h25.824c5.991,0,10.865-4.874,10.865-10.865v-25.824
		c0-5.991-4.874-10.865-10.865-10.865h-25.824c-5.991,0-10.865,4.874-10.865,10.865v25.824
		C170.022,169.434,174.896,174.307,180.888,174.307z M185.544,142.275h16.511v16.511h-16.511V142.275z"/>
	<path style="fill:#50000F;" d="M180.888,229.838h25.824c5.991,0,10.865-4.874,10.865-10.865v-25.824
		c0-5.991-4.874-10.865-10.865-10.865h-25.824c-5.991,0-10.865,4.874-10.865,10.865v25.824
		C170.022,224.964,174.896,229.838,180.888,229.838z M185.544,197.805h16.511v16.511h-16.511V197.805z"/>
	<path style="fill:#50000F;" d="M180.888,285.369h25.824c5.991,0,10.865-4.874,10.865-10.865V248.68
		c0-5.991-4.874-10.865-10.865-10.865h-25.824c-5.991,0-10.865,4.874-10.865,10.865v25.824
		C170.022,280.495,174.896,285.369,180.888,285.369z M185.544,253.337h16.511v16.511h-16.511V253.337z"/>
	<path style="fill:#50000F;" d="M180.888,340.9h25.824c5.991,0,10.865-4.874,10.865-10.865v-25.824
		c0-5.991-4.874-10.865-10.865-10.865h-25.824c-5.991,0-10.865,4.874-10.865,10.865v25.824
		C170.022,336.027,174.896,340.9,180.888,340.9z M185.544,308.868h16.511v16.511h-16.511V308.868z"/>
	<path style="fill:#50000F;" d="M232.186,158.292h113.417c4.287,0,7.761-3.474,7.761-7.761s-3.474-7.761-7.761-7.761H232.186
		c-4.286,0-7.761,3.474-7.761,7.761S227.901,158.292,232.186,158.292z"/>
	<path style="fill:#50000F;" d="M232.186,267.061h113.417c4.287,0,7.761-3.474,7.761-7.761s-3.474-7.761-7.761-7.761H232.186
		c-4.286,0-7.761,3.474-7.761,7.761C224.426,263.587,227.901,267.061,232.186,267.061z"/>
	<path style="fill:#50000F;" d="M232.186,322.965h113.417c4.287,0,7.761-3.474,7.761-7.761s-3.474-7.761-7.761-7.761H232.186
		c-4.286,0-7.761,3.474-7.761,7.761C224.426,319.492,227.901,322.965,232.186,322.965z"/>
	<path style="fill:#50000F;" d="M232.186,213.822h91.668c4.287,0,7.761-3.474,7.761-7.761s-3.474-7.761-7.761-7.761h-91.668
		c-4.286,0-7.761,3.474-7.761,7.761C224.426,210.348,227.901,213.822,232.186,213.822z"/>
</g>
<g>
</g>
<g>
</g>
<g>
</g>
<g>
</g>
<g>
</g>
<g>
</g>
<g>
</g>
<g>
</g>
<g>
</g>
<g>
</g>
<g>
</g>
<g>
</g>
<g>
</g>
<g>
</g>
<g>
</g>
</svg>
