<svg width="133" height="23" viewBox="0 0 133 23" fill="none" xmlns="http://www.w3.org/2000/svg">
<path d="M16.8125 3.79688L14.5156 5.98828C12.9531 4.33984 11.1953 3.51562 9.24219 3.51562C7.59375 3.51562 6.20312 4.07812 5.07031 5.20312C3.94531 6.32812 3.38281 7.71484 3.38281 9.36328C3.38281 10.5117 3.63281 11.5312 4.13281 12.4219C4.63281 13.3125 5.33984 14.0117 6.25391 14.5195C7.16797 15.0273 8.18359 15.2812 9.30078 15.2812C10.2539 15.2812 11.125 15.1055 11.9141 14.7539C12.7031 14.3945 13.5703 13.7461 14.5156 12.8086L16.7422 15.1289C15.4688 16.3711 14.2656 17.2344 13.1328 17.7188C12 18.1953 10.707 18.4336 9.25391 18.4336C6.57422 18.4336 4.37891 17.5859 2.66797 15.8906C0.964844 14.1875 0.113281 12.0078 0.113281 9.35156C0.113281 7.63281 0.5 6.10547 1.27344 4.76953C2.05469 3.43359 3.16797 2.35938 4.61328 1.54688C6.06641 0.734375 7.62891 0.328125 9.30078 0.328125C10.7227 0.328125 12.0898 0.628906 13.4023 1.23047C14.7227 1.83203 15.8594 2.6875 16.8125 3.79688ZM20.0755 0.328125H23.2512V6.53906C23.8762 6 24.5052 5.59766 25.138 5.33203C25.7708 5.05859 26.4114 4.92188 27.0598 4.92188C28.3255 4.92188 29.3919 5.35938 30.2591 6.23438C31.0012 6.99219 31.3723 8.10547 31.3723 9.57422V18H28.22V12.4102C28.22 10.9336 28.1497 9.93359 28.0091 9.41016C27.8684 8.88672 27.6262 8.49609 27.2825 8.23828C26.9466 7.98047 26.5286 7.85156 26.0286 7.85156C25.3802 7.85156 24.8216 8.06641 24.3528 8.49609C23.8919 8.92578 23.5716 9.51172 23.3919 10.2539C23.2981 10.6367 23.2512 11.5117 23.2512 12.8789V18H20.0755V0.328125ZM47.9712 12.5508H37.6939C37.8423 13.457 38.2369 14.1797 38.8775 14.7188C39.5259 15.25 40.3502 15.5156 41.3502 15.5156C42.5455 15.5156 43.5728 15.0977 44.4322 14.2617L47.1275 15.5273C46.4556 16.4805 45.6509 17.1875 44.7134 17.6484C43.7759 18.1016 42.6627 18.3281 41.3736 18.3281C39.3736 18.3281 37.7447 17.6992 36.4869 16.4414C35.2291 15.1758 34.6002 13.5938 34.6002 11.6953C34.6002 9.75 35.2252 8.13672 36.4752 6.85547C37.733 5.56641 39.3072 4.92188 41.1978 4.92188C43.2056 4.92188 44.8384 5.56641 46.0962 6.85547C47.3541 8.13672 47.983 9.83203 47.983 11.9414L47.9712 12.5508ZM44.7603 10.0312C44.5494 9.32031 44.1314 8.74219 43.5064 8.29688C42.8892 7.85156 42.1705 7.62891 41.3502 7.62891C40.4595 7.62891 39.6783 7.87891 39.0064 8.37891C38.5845 8.69141 38.1939 9.24219 37.8345 10.0312H44.7603ZM59.0975 7.03125L57.117 9.01172C56.3123 8.21484 55.5819 7.81641 54.9256 7.81641C54.5662 7.81641 54.285 7.89453 54.0819 8.05078C53.8787 8.19922 53.7772 8.38672 53.7772 8.61328C53.7772 8.78516 53.8397 8.94531 53.9647 9.09375C54.0975 9.23438 54.4178 9.42969 54.9256 9.67969L56.0975 10.2656C57.3319 10.875 58.1795 11.4961 58.6405 12.1289C59.1014 12.7617 59.3319 13.5039 59.3319 14.3555C59.3319 15.4883 58.9139 16.4336 58.078 17.1914C57.2498 17.9492 56.1366 18.3281 54.7381 18.3281C52.8787 18.3281 51.3944 17.6016 50.285 16.1484L52.2537 14.0039C52.6287 14.4414 53.0662 14.7969 53.5662 15.0703C54.0741 15.3359 54.5233 15.4688 54.9139 15.4688C55.3358 15.4688 55.6756 15.3672 55.9334 15.1641C56.1912 14.9609 56.3202 14.7266 56.3202 14.4609C56.3202 13.9688 55.8553 13.4883 54.9256 13.0195L53.8475 12.4805C51.785 11.4414 50.7537 10.1406 50.7537 8.57812C50.7537 7.57031 51.1405 6.71094 51.9139 6C52.6952 5.28125 53.6912 4.92188 54.9022 4.92188C55.7303 4.92188 56.5077 5.10547 57.2342 5.47266C57.9686 5.83203 58.5897 6.35156 59.0975 7.03125ZM70.3878 7.03125L68.4073 9.01172C67.6027 8.21484 66.8722 7.81641 66.2159 7.81641C65.8566 7.81641 65.5753 7.89453 65.3722 8.05078C65.1691 8.19922 65.0675 8.38672 65.0675 8.61328C65.0675 8.78516 65.13 8.94531 65.255 9.09375C65.3878 9.23438 65.7081 9.42969 66.2159 9.67969L67.3878 10.2656C68.6222 10.875 69.4698 11.4961 69.9308 12.1289C70.3917 12.7617 70.6222 13.5039 70.6222 14.3555C70.6222 15.4883 70.2042 16.4336 69.3683 17.1914C68.5402 17.9492 67.4269 18.3281 66.0284 18.3281C64.1691 18.3281 62.6847 17.6016 61.5753 16.1484L63.5441 14.0039C63.9191 14.4414 64.3566 14.7969 64.8566 15.0703C65.3644 15.3359 65.8136 15.4688 66.2042 15.4688C66.6261 15.4688 66.9659 15.3672 67.2238 15.1641C67.4816 14.9609 67.6105 14.7266 67.6105 14.4609C67.6105 13.9688 67.1456 13.4883 66.2159 13.0195L65.1378 12.4805C63.0753 11.4414 62.0441 10.1406 62.0441 8.57812C62.0441 7.57031 62.4308 6.71094 63.2042 6C63.9855 5.28125 64.9816 4.92188 66.1925 4.92188C67.0206 4.92188 67.798 5.10547 68.5245 5.47266C69.2589 5.83203 69.88 6.35156 70.3878 7.03125ZM72.4555 5.25H75.5844L78.1508 12.5039L80.9164 5.25H82.8266L85.5336 12.4219L88.1 5.25H91.2523L86.6 18H84.5727L81.8539 10.7344L79.0531 18H77.0492L72.4555 5.25ZM92.3708 5.25H95.6403L98.9567 13.2539L102.613 5.25H105.894L97.902 22.6641H94.5973L97.2223 17.0508L92.3708 5.25ZM107.88 5.25H117.665L111.923 15.293H117.337V18H107.001L112.767 7.95703H107.88V5.25ZM132.963 12.5508H122.686C122.834 13.457 123.229 14.1797 123.869 14.7188C124.518 15.25 125.342 15.5156 126.342 15.5156C127.537 15.5156 128.565 15.0977 129.424 14.2617L132.119 15.5273C131.448 16.4805 130.643 17.1875 129.705 17.6484C128.768 18.1016 127.655 18.3281 126.365 18.3281C124.365 18.3281 122.737 17.6992 121.479 16.4414C120.221 15.1758 119.592 13.5938 119.592 11.6953C119.592 9.75 120.217 8.13672 121.467 6.85547C122.725 5.56641 124.299 4.92188 126.19 4.92188C128.198 4.92188 129.83 5.56641 131.088 6.85547C132.346 8.13672 132.975 9.83203 132.975 11.9414L132.963 12.5508ZM129.752 10.0312C129.541 9.32031 129.123 8.74219 128.498 8.29688C127.881 7.85156 127.162 7.62891 126.342 7.62891C125.451 7.62891 124.67 7.87891 123.998 8.37891C123.576 8.69141 123.186 9.24219 122.826 10.0312H129.752Z" fill="white"/>
</svg>
