<svg width="234" height="40" viewBox="0 0 234 40" fill="none" xmlns="http://www.w3.org/2000/svg">
<path d="M30.1719 6.14453L26.1523 9.97949C23.418 7.09473 20.3418 5.65234 16.9238 5.65234C14.0391 5.65234 11.6055 6.63672 9.62305 8.60547C7.6543 10.5742 6.66992 13.001 6.66992 15.8857C6.66992 17.8955 7.10742 19.6797 7.98242 21.2383C8.85742 22.7969 10.0947 24.0205 11.6943 24.9092C13.2939 25.7979 15.0713 26.2422 17.0264 26.2422C18.6943 26.2422 20.2188 25.9346 21.5996 25.3193C22.9805 24.6904 24.498 23.5557 26.1523 21.915L30.0488 25.9756C27.8203 28.1494 25.7148 29.6602 23.7324 30.5078C21.75 31.3418 19.4873 31.7588 16.9443 31.7588C12.2549 31.7588 8.41309 30.2754 5.41895 27.3086C2.43848 24.3281 0.948242 20.5137 0.948242 15.8652C0.948242 12.8574 1.625 10.1846 2.97852 7.84668C4.3457 5.50879 6.29395 3.62891 8.82324 2.20703C11.3662 0.785156 14.1006 0.0742188 17.0264 0.0742188C19.5146 0.0742188 21.9072 0.600586 24.2041 1.65332C26.5146 2.70605 28.5039 4.20312 30.1719 6.14453ZM35.8821 0.0742188H41.4397V10.9434C42.5334 10 43.634 9.2959 44.7414 8.83105C45.8489 8.35254 46.97 8.11328 48.1047 8.11328C50.3196 8.11328 52.1858 8.87891 53.7034 10.4102C55.0022 11.7363 55.6516 13.6846 55.6516 16.2549V31H50.135V21.2178C50.135 18.6338 50.012 16.8838 49.7659 15.9678C49.5198 15.0518 49.0959 14.3682 48.4944 13.917C47.9065 13.4658 47.175 13.2402 46.3 13.2402C45.1653 13.2402 44.1877 13.6162 43.3674 14.3682C42.5608 15.1201 42.0002 16.1455 41.6858 17.4443C41.5217 18.1143 41.4397 19.6455 41.4397 22.0381V31H35.8821V0.0742188ZM84.6997 21.4639H66.7143C66.9741 23.0498 67.6645 24.3145 68.7856 25.2578C69.9204 26.1875 71.3628 26.6523 73.1128 26.6523C75.2046 26.6523 77.0024 25.9209 78.5063 24.458L83.2231 26.6729C82.0473 28.3408 80.6391 29.5781 78.9985 30.3848C77.3579 31.1777 75.4096 31.5742 73.1538 31.5742C69.6538 31.5742 66.8032 30.4736 64.602 28.2725C62.4009 26.0576 61.3003 23.2891 61.3003 19.9668C61.3003 16.5625 62.394 13.7393 64.5815 11.4971C66.7827 9.24121 69.5376 8.11328 72.8462 8.11328C76.3598 8.11328 79.2173 9.24121 81.4184 11.4971C83.6196 13.7393 84.7202 16.7061 84.7202 20.3975L84.6997 21.4639ZM79.0805 17.0547C78.7114 15.8105 77.98 14.7988 76.8862 14.0195C75.8061 13.2402 74.5483 12.8506 73.1128 12.8506C71.5542 12.8506 70.187 13.2881 69.0112 14.1631C68.2729 14.71 67.5893 15.6738 66.9604 17.0547H79.0805ZM104.171 11.8047L100.705 15.2705C99.2966 13.876 98.0183 13.1787 96.8698 13.1787C96.2409 13.1787 95.7487 13.3154 95.3933 13.5889C95.0378 13.8486 94.8601 14.1768 94.8601 14.5732C94.8601 14.874 94.9695 15.1543 95.1882 15.4141C95.4206 15.6602 95.9812 16.002 96.8698 16.4395L98.9206 17.4648C101.081 18.5312 102.564 19.6182 103.371 20.7256C104.177 21.833 104.581 23.1318 104.581 24.6221C104.581 26.6045 103.849 28.2588 102.386 29.585C100.937 30.9111 98.989 31.5742 96.5417 31.5742C93.2878 31.5742 90.6902 30.3027 88.7487 27.7598L92.1941 24.0068C92.8503 24.7725 93.6159 25.3945 94.4909 25.873C95.3796 26.3379 96.1657 26.5703 96.8493 26.5703C97.5876 26.5703 98.1823 26.3926 98.6335 26.0371C99.0847 25.6816 99.3103 25.2715 99.3103 24.8066C99.3103 23.9453 98.4968 23.1045 96.8698 22.2842L94.9831 21.3408C91.3737 19.5225 89.5691 17.2461 89.5691 14.5117C89.5691 12.748 90.2458 11.2441 91.5993 10C92.9665 8.74219 94.7097 8.11328 96.8288 8.11328C98.278 8.11328 99.6384 8.43457 100.91 9.07715C102.195 9.70605 103.282 10.6152 104.171 11.8047ZM123.929 11.8047L120.463 15.2705C119.055 13.876 117.776 13.1787 116.628 13.1787C115.999 13.1787 115.507 13.3154 115.151 13.5889C114.796 13.8486 114.618 14.1768 114.618 14.5732C114.618 14.874 114.728 15.1543 114.946 15.4141C115.179 15.6602 115.739 16.002 116.628 16.4395L118.679 17.4648C120.839 18.5312 122.322 19.6182 123.129 20.7256C123.936 21.833 124.339 23.1318 124.339 24.6221C124.339 26.6045 123.607 28.2588 122.144 29.585C120.695 30.9111 118.747 31.5742 116.3 31.5742C113.046 31.5742 110.448 30.3027 108.507 27.7598L111.952 24.0068C112.608 24.7725 113.374 25.3945 114.249 25.873C115.138 26.3379 115.924 26.5703 116.607 26.5703C117.346 26.5703 117.94 26.3926 118.392 26.0371C118.843 25.6816 119.068 25.2715 119.068 24.8066C119.068 23.9453 118.255 23.1045 116.628 22.2842L114.741 21.3408C111.132 19.5225 109.327 17.2461 109.327 14.5117C109.327 12.748 110.004 11.2441 111.357 10C112.725 8.74219 114.468 8.11328 116.587 8.11328C118.036 8.11328 119.396 8.43457 120.668 9.07715C121.953 9.70605 123.04 10.6152 123.929 11.8047ZM127.547 8.6875H133.023L137.514 21.3818L142.354 8.6875H145.696L150.434 21.2383L154.925 8.6875H160.442L152.3 31H148.752L143.994 18.2852L139.093 31H135.586L127.547 8.6875ZM162.399 8.6875H168.121L173.924 22.6943L180.323 8.6875H186.065L172.079 39.1621H166.295L170.889 29.3389L162.399 8.6875ZM189.54 8.6875H206.664L196.615 26.2627H206.09V31H188.002L198.091 13.4248H189.54V8.6875ZM233.435 21.4639H215.45C215.71 23.0498 216.4 24.3145 217.521 25.2578C218.656 26.1875 220.099 26.6523 221.849 26.6523C223.94 26.6523 225.738 25.9209 227.242 24.458L231.959 26.6729C230.783 28.3408 229.375 29.5781 227.734 30.3848C226.094 31.1777 224.145 31.5742 221.89 31.5742C218.39 31.5742 215.539 30.4736 213.338 28.2725C211.137 26.0576 210.036 23.2891 210.036 19.9668C210.036 16.5625 211.13 13.7393 213.317 11.4971C215.518 9.24121 218.273 8.11328 221.582 8.11328C225.096 8.11328 227.953 9.24121 230.154 11.4971C232.355 13.7393 233.456 16.7061 233.456 20.3975L233.435 21.4639ZM227.816 17.0547C227.447 15.8105 226.716 14.7988 225.622 14.0195C224.542 13.2402 223.284 12.8506 221.849 12.8506C220.29 12.8506 218.923 13.2881 217.747 14.1631C217.009 14.71 216.325 15.6738 215.696 17.0547H227.816Z" fill="white"/>
</svg>
