<svg width="18" height="5" viewBox="0 0 18 5" fill="none" xmlns="http://www.w3.org/2000/svg">
<path d="M13.5 2.5C13.5 1.125 14.5125 -8.01231e-07 15.75 -8.55324e-07C16.9875 -9.09417e-07 18 1.125 18 2.5C18 3.875 16.9875 5 15.75 5C14.5125 5 13.5 3.875 13.5 2.5ZM11.25 2.5C11.25 3.875 10.2375 5 9 5C7.7625 5 6.75 3.875 6.75 2.5C6.75 1.125 7.7625 -5.06179e-07 9 -5.60272e-07C10.2375 -6.14365e-07 11.25 1.125 11.25 2.5ZM4.5 2.5C4.5 3.875 3.4875 5 2.25 5C1.0125 5 -4.91753e-08 3.875 -1.09278e-07 2.5C-1.69382e-07 1.125 1.0125 -2.11127e-07 2.25 -2.6522e-07C3.4875 -3.19313e-07 4.5 1.125 4.5 2.5Z" fill="#023F88"/>
</svg>
