<svg width="106" height="106" viewBox="0 0 106 106" fill="none" xmlns="http://www.w3.org/2000/svg">
<path d="M74.5312 89.4375H86.125V92.75H74.5312V89.4375Z" fill="#FF0000" fill-opacity="0.4"/>
<path d="M59.625 45.9609C61.2233 45.9609 62.5234 44.6608 62.5234 43.0625C62.5234 41.4642 61.2233 40.1641 59.625 40.1641C58.0267 40.1641 56.7266 41.4642 56.7266 43.0625C56.7266 44.6608 58.0267 45.9609 59.625 45.9609ZM59.625 42.6484C59.8536 42.6484 60.0391 42.8339 60.0391 43.0625C60.0391 43.518 59.2109 43.518 59.2109 43.0625C59.2109 42.8339 59.3964 42.6484 59.625 42.6484Z" fill="#FF0000" fill-opacity="0.4"/>
<path d="M76.1875 45.9609C77.7858 45.9609 79.0859 44.6608 79.0859 43.0625C79.0859 41.4642 77.7858 40.1641 76.1875 40.1641C74.5892 40.1641 73.2891 41.4642 73.2891 43.0625C73.2891 44.6608 74.5892 45.9609 76.1875 45.9609ZM76.1875 42.6484C76.4161 42.6484 76.6016 42.8339 76.6016 43.0625C76.6016 43.518 75.7734 43.518 75.7734 43.0625C75.7734 42.8339 75.9589 42.6484 76.1875 42.6484Z" fill="#FF0000" fill-opacity="0.4"/>
<path d="M67.9062 57.5547C71.3314 57.5547 74.1172 54.7672 74.1172 51.3438H71.6328C71.6328 53.3975 69.9617 55.0703 67.9062 55.0703C65.8508 55.0703 64.1797 53.3975 64.1797 51.3438H61.6953C61.6953 54.7672 64.4811 57.5547 67.9062 57.5547Z" fill="#FF0000" fill-opacity="0.4"/>
<path d="M102.688 57.9686C102.688 54.3149 99.7162 51.3436 96.0625 51.3436V32.2172C96.0625 16.7346 84.2915 4.05266 69.2677 3.34379C68.7857 3.32225 67.0268 3.32225 66.5465 3.34379C51.521 4.05266 39.75 16.7346 39.75 32.2172V51.3436C36.0963 51.3436 33.125 54.3149 33.125 57.9686C33.125 60.7097 34.7995 63.0682 37.1795 64.0752C34.6984 66.2034 33.125 69.3586 33.125 72.8748C33.125 74.8159 33.6119 76.7272 34.5361 78.4216C34.6769 79.0891 35.0976 80.7271 36.0847 82.65L34.4947 90.1296L28.2358 77.6117L29.4067 71.7569C29.7727 69.9267 28.8635 68.0651 27.194 67.2303C25.5924 66.4287 23.6695 66.745 22.4024 68.0088L21.1338 69.2774L10.0004 64.8254C8.49822 64.2226 6.79725 64.4064 5.45569 65.3157C4.11412 66.225 3.3125 67.7305 3.3125 69.3503C3.3125 71.096 4.25325 72.7175 5.76872 73.5837L15.1547 78.9466L21.5942 101.485C21.7979 102.197 22.4488 102.687 23.1875 102.687H38.0938H101.031C101.53 102.687 102 102.464 102.315 102.078C102.63 101.692 102.754 101.185 102.654 100.698L99.0504 83.2164C99.9663 81.7639 100.693 80.2302 101.19 78.6402L101.288 78.3222C101.42 77.885 101.579 77.4543 101.74 77.0221C102.184 75.818 102.688 74.4549 102.688 72.8748C102.688 69.3586 101.114 66.2034 98.633 64.0752C101.013 63.0682 102.688 60.7097 102.688 57.9686ZM24.4363 99.3748L18.1542 77.3898C18.0349 76.974 17.7583 76.6213 17.384 76.4059L7.41172 70.7084C6.92644 70.4285 6.625 69.9101 6.625 69.3503C6.625 68.8236 6.87509 68.3499 7.31234 68.0551C7.74959 67.7603 8.28125 67.7007 8.76984 67.8978L20.9151 72.7572C21.5296 73.0007 22.2335 72.8599 22.7022 72.3895L24.7427 70.349C24.9978 70.0956 25.3887 70.0294 25.7116 70.1917C26.0495 70.3606 26.2317 70.7366 26.1588 71.1059L24.8769 77.5189C24.804 77.88 24.8553 78.2543 25.0193 78.5856L35.4139 99.3748H24.4363ZM36.8714 94.8814L40.3048 78.7247C40.3164 78.6684 40.3264 78.6121 40.333 78.5524C40.4026 77.8866 40.863 77.3318 41.4029 77.1645L51.8224 74.7364L54.3449 83.281C54.5569 84.0015 55.2161 84.4686 55.9332 84.4686C56.079 84.4686 56.228 84.4487 56.3754 84.4089L66.25 81.6761V99.3748H48.0312V92.7498H44.7188V99.3748H39.1173L36.8714 94.8814ZM58.0615 73.2839C58.1509 73.6251 58.3099 73.9431 58.5898 74.17L64.3387 78.7694L57.0595 80.7834L55.0538 73.9845L58.0615 73.2839ZM51.3438 36.4373H63.0965C67.6644 36.4373 71.6278 33.3418 72.7243 28.961L74.523 22.6441L76.6397 30.1634C77.5456 33.7906 80.7505 36.328 84.4704 36.4208V44.7186C84.4704 53.8511 77.0405 61.2811 67.9079 61.2811C58.7753 61.2811 51.3454 53.8511 51.3454 44.7186V36.4373H51.3438ZM77.2227 74.1683C77.4993 73.9464 77.6549 73.635 77.7477 73.3005L80.6279 73.9994L78.1071 80.7834L71.4208 78.8075L77.2227 74.1683ZM67.9062 64.5936C70.2316 64.5936 72.456 64.1712 74.5312 63.4342V72.0798L67.9062 77.3798L61.2812 72.0798V63.4342C63.3565 64.1712 65.5809 64.5936 67.9062 64.5936ZM91.0938 99.3748V92.7498H87.7812V99.3748H69.5625V81.7159L78.652 84.4007C79.4851 84.6507 80.3695 84.2069 80.6743 83.3903L83.8692 74.7894L93.55 77.1413C94.1926 77.3334 94.653 77.8883 94.7474 78.7148L98.999 99.3748H91.0938ZM96.0625 61.2811H91.0938C90.1795 61.2811 89.4375 62.0214 89.4375 62.9373C89.4375 63.8532 90.1795 64.5936 91.0938 64.5936C95.66 64.5936 99.375 68.3085 99.375 72.8748C99.375 73.8636 99.0139 74.8391 98.633 75.8726C98.4492 76.3695 98.267 76.8664 98.1146 77.3699L98.0301 77.6448C98.0086 77.7127 97.9722 77.7773 97.9506 77.8436C97.6194 76.0117 96.3027 74.5079 94.4178 73.9431L77.8438 69.9168V61.9055C83.7748 58.4621 87.7812 52.0574 87.7812 44.7202V36.439H89.4375V33.1265H84.6725C82.3885 33.1265 80.406 31.5779 79.8395 29.3154L76.1246 16.1151C75.9242 15.4013 75.2749 14.9077 74.5329 14.9061H74.5312C73.7909 14.9061 73.1417 15.398 72.9379 16.1102L69.5228 28.108C68.7841 31.0611 66.1423 33.1248 63.0965 33.1248H46.375V36.4373H48.0312V44.7186C48.0312 52.0558 52.0377 58.4621 57.9688 61.9038V69.9035L40.55 73.9663C39.1173 74.3986 37.9894 75.4337 37.418 76.7587C36.7837 75.5679 36.4375 74.2346 36.4375 72.8748C36.4375 68.3085 40.1525 64.5936 44.7188 64.5936C45.633 64.5936 46.375 63.8532 46.375 62.9373C46.375 62.0214 45.633 61.2811 44.7188 61.2811H39.75C37.9232 61.2811 36.4375 59.7954 36.4375 57.9686C36.4375 56.1417 37.9232 54.6561 39.75 54.6561H41.4062C42.3205 54.6561 43.0625 53.9157 43.0625 52.9998V32.2172C43.0625 18.5068 53.4472 7.27738 66.7055 6.65297C67.0765 6.6331 68.7344 6.6331 69.1087 6.65297C82.3653 7.27904 92.75 18.5068 92.75 32.2172V52.9998C92.75 53.9157 93.492 54.6561 94.4062 54.6561H96.0625C97.8893 54.6561 99.375 56.1417 99.375 57.9686C99.375 59.7954 97.8893 61.2811 96.0625 61.2811Z" fill="#FF0000" fill-opacity="0.4"/>
<path d="M28.1562 36.4375H31.4688V41.4062H28.1562V36.4375Z" fill="#FF0000" fill-opacity="0.4"/>
<path d="M23.1875 33.125H28.1562V36.4375H23.1875V33.125Z" fill="#FF0000" fill-opacity="0.4"/>
<path d="M28.1562 28.1562H31.4688V33.125H28.1562V28.1562Z" fill="#FF0000" fill-opacity="0.4"/>
<path d="M31.4688 33.125H36.4375V36.4375H31.4688V33.125Z" fill="#FF0000" fill-opacity="0.4"/>
<path d="M8.28125 19.875H11.5938V24.8438H8.28125V19.875Z" fill="#FF0000" fill-opacity="0.4"/>
<path d="M3.3125 16.5625H8.28125V19.875H3.3125V16.5625Z" fill="#FF0000" fill-opacity="0.4"/>
<path d="M8.28125 11.5938H11.5938V16.5625H8.28125V11.5938Z" fill="#FF0000" fill-opacity="0.4"/>
<path d="M11.5938 16.5625H16.5625V19.875H11.5938V16.5625Z" fill="#FF0000" fill-opacity="0.4"/>
<path d="M24.8438 16.5625H28.1562V19.875H24.8438V16.5625Z" fill="#FF0000" fill-opacity="0.4"/>
<path d="M6.625 34.7812H9.9375V38.0938H6.625V34.7812Z" fill="#FF0000" fill-opacity="0.4"/>
<path d="M16.5625 46.375H19.875V49.6875H16.5625V46.375Z" fill="#FF0000" fill-opacity="0.4"/>
</svg>
