<svg width="70" height="70" viewBox="0 0 70 70" fill="none" xmlns="http://www.w3.org/2000/svg">
<g clip-path="url(#clip0)">
<path d="M59.4773 23.3916C59.4765 23.3916 59.4756 23.3916 59.4749 23.3916H1.00222C0.449363 23.391 0.000585299 23.8386 5.72235e-07 24.3915C5.72235e-07 24.3922 5.72235e-07 24.3931 5.72235e-07 24.3938V52.4607C-0.000584155 53.0136 0.447024 53.4624 0.999884 53.4629C1.00061 53.4629 1.00149 53.4629 1.00222 53.4629H40.7637C41.3171 53.4629 41.7659 53.0142 41.7659 52.4607C41.7659 51.9073 41.3171 51.4585 40.7637 51.4585H2.00444V25.396H58.4727V27.9022C58.4721 28.455 58.9197 28.9038 59.4726 28.9044C59.4733 28.9044 59.4742 28.9044 59.4749 28.9044C60.0278 28.905 60.4766 28.4574 60.4771 27.9045C60.4771 27.9038 60.4771 27.9029 60.4771 27.9022V24.3938C60.4777 23.841 60.0301 23.3923 59.4773 23.3916Z" fill="#FF0000" fill-opacity="0.4"/>
<path d="M52.6777 18.7383L5.89959 8.21322C5.63997 8.15518 5.36793 8.20225 5.14295 8.3442C4.91827 8.48731 4.75937 8.71345 4.7009 8.97336L2.36199 19.4984C2.24183 20.039 2.58273 20.5746 3.12331 20.6948C3.66389 20.815 4.1995 20.4741 4.31966 19.9335L6.43988 10.3896L52.238 20.6936C52.3105 20.7104 52.3846 20.7188 52.4591 20.7182C53.0125 20.7172 53.4604 20.2676 53.4595 19.7142C53.4586 19.2463 53.1341 18.8414 52.6777 18.7383Z" fill="#FF0000" fill-opacity="0.4"/>
<path d="M46.998 12.9391L18.9311 1.24461C18.4433 1.04127 17.8812 1.25016 17.6447 1.72291L15.3058 6.40073C15.0416 6.88927 15.2235 7.49958 15.7122 7.76373C16.2007 8.02788 16.811 7.84603 17.0752 7.35734C17.0856 7.33819 17.0954 7.3186 17.1044 7.29872V7.30106L19.0235 3.46057L46.2238 14.7938C46.736 15.0075 47.3246 14.7657 47.5383 14.2535C47.752 13.7415 47.5102 13.153 46.998 12.9391Z" fill="#FF0000" fill-opacity="0.4"/>
<path d="M47.707 28.0693H38.4251C37.8716 28.0693 37.4229 28.5181 37.4229 29.0716C37.4229 29.625 37.8716 30.0738 38.4251 30.0738H47.707C48.2605 30.0738 48.7092 29.625 48.7092 29.0716C48.7092 28.5181 48.2605 28.0693 47.707 28.0693Z" fill="#FF0000" fill-opacity="0.4"/>
<path d="M29.0695 28.1362C23.3858 28.1362 18.7783 32.7437 18.7783 38.4274C18.7842 44.1086 23.3883 48.7128 29.0695 48.7186C34.7532 48.7186 39.3607 44.1111 39.3607 38.4274C39.3607 32.7437 34.7532 28.1362 29.0695 28.1362ZM29.0695 46.8475C24.4192 46.8475 20.6494 43.0777 20.6494 38.4274C20.6546 33.7793 24.4214 30.0125 29.0695 30.0074C33.7199 30.0074 37.4896 33.7771 37.4896 38.4274C37.4896 43.0777 33.7199 46.8475 29.0695 46.8475Z" fill="#FF0000" fill-opacity="0.4"/>
<path d="M57.1365 31.4106C50.9383 31.4106 44.2725 32.8748 44.2725 36.0885V64.1553C44.2725 67.369 50.9383 68.8332 57.1365 68.8332C63.3346 68.8332 70.0004 67.369 70.0004 64.1553V36.0885C70.0004 32.8748 63.3346 31.4106 57.1365 31.4106ZM67.6615 64.1378C67.485 64.7868 63.9778 66.4942 57.1365 66.4942C50.2951 66.4942 46.788 64.7868 46.6114 64.1553V62.317C49.1 63.5706 53.2106 64.1553 57.1365 64.1553C61.0623 64.1553 65.1741 63.5648 67.6615 62.3158V64.1378ZM67.6615 59.46C67.485 60.109 63.9778 61.8164 57.1365 61.8164C50.2951 61.8164 46.788 60.109 46.6114 59.4775V57.6391C49.1 58.8928 53.2106 59.4775 57.1365 59.4775C61.0623 59.4775 65.1741 58.887 67.6615 57.638V59.46ZM67.6615 54.7822C67.485 55.4312 63.9778 57.1386 57.1365 57.1386C50.2951 57.1386 46.788 55.4312 46.6114 54.7997V52.9613C49.1 54.215 53.2106 54.7997 57.1365 54.7997C61.0623 54.7997 65.1741 54.2091 67.6615 52.9602V54.7822ZM67.6615 50.1044C67.485 50.7534 63.9778 52.4608 57.1365 52.4608C50.2951 52.4608 46.788 50.7534 46.6114 50.1219V48.2835C49.1 49.5372 53.2106 50.1219 57.1365 50.1219C61.0623 50.1219 65.1741 49.5313 67.6615 48.2824V50.1044ZM67.6615 45.4265C67.485 46.0756 63.9778 47.783 57.1365 47.783C50.2951 47.783 46.788 46.0756 46.6114 45.4441V43.6057C49.1 44.8535 53.2106 45.4441 57.1365 45.4441C61.0623 45.4441 65.1741 44.8535 67.6615 43.6045V45.4265ZM67.6615 40.7487C67.485 41.3978 63.9778 43.1052 57.1365 43.1052C50.2951 43.1052 46.788 41.3978 46.6114 40.7663V38.9279C49.1 40.1757 53.2106 40.7663 57.1365 40.7663C61.0623 40.7663 65.1741 40.1757 67.6615 38.9267V40.7487ZM57.1365 38.4274C50.3057 38.4274 46.7997 36.7246 46.6114 36.1095V36.1025C46.7997 35.4511 50.3057 33.7496 57.1365 33.7496C63.9193 33.7496 67.4276 35.4265 67.6615 36.0885C67.4276 36.7504 63.9193 38.4274 57.1365 38.4274Z" fill="#FF0000" fill-opacity="0.4"/>
<path d="M19.7136 46.7794H10.8737L6.68237 42.1952V34.5937L11.3111 30.0738H19.7136C20.267 30.0738 20.7158 29.625 20.7158 29.0716C20.7158 28.5181 20.267 28.0693 19.7136 28.0693H10.9041C10.6421 28.0688 10.3903 28.1708 10.2024 28.3535L4.97848 33.4488C4.78333 33.6769 4.67632 33.9673 4.67676 34.2674V42.5846C4.67676 42.8347 4.77017 43.0758 4.93872 43.2605L9.69021 48.4576C9.8801 48.6655 10.1488 48.784 10.4305 48.7839H19.7136C20.267 48.7839 20.7158 48.3351 20.7158 47.7816C20.7158 47.2282 20.2672 46.7794 19.7136 46.7794Z" fill="#FF0000" fill-opacity="0.4"/>
<path d="M29.6536 37.2576H28.4842C28.1205 37.2576 27.8995 37.0542 27.8995 36.9653C27.8995 36.8764 28.1205 36.6729 28.4842 36.6729H31.4078C32.0536 36.6729 32.5773 36.1493 32.5773 35.5035C32.5773 34.8576 32.0536 34.334 31.4078 34.334H30.2384C30.2384 33.6882 29.7147 33.1646 29.0689 33.1646C28.4231 33.1646 27.8995 33.6882 27.8995 34.334V34.3866C26.6024 34.5698 25.6198 35.6508 25.5605 36.9594C25.6443 38.4927 26.9503 39.6708 28.4842 39.5966H29.6536C30.0173 39.5966 30.2384 39.8 30.2384 39.8889C30.2384 39.9778 30.0173 40.1813 29.6536 40.1813H26.73C26.0842 40.1813 25.5605 40.7049 25.5605 41.3507C25.5605 41.9966 26.0842 42.5202 26.73 42.5202H27.8995C27.8995 43.166 28.4231 43.6896 29.0689 43.6896C29.7147 43.6896 30.2384 43.166 30.2384 42.5202V42.4676C31.5354 42.2844 32.5181 41.2034 32.5773 39.8948C32.4935 38.3615 31.1875 37.1834 29.6536 37.2576Z" fill="#FF0000" fill-opacity="0.4"/>
</g>
<defs>
<clipPath id="clip0">
<rect width="70" height="70" fill="white"/>
</clipPath>
</defs>
</svg>
