<svg width="106" height="106" viewBox="0 0 106 106" fill="none" xmlns="http://www.w3.org/2000/svg">
<g clip-path="url(#clip0)">
<path d="M89.244 67.1854V29.2072C89.244 28.0278 88.279 27.2129 87.0995 27.2129H78.8005C77.6211 27.2129 76.5917 28.0278 76.5917 29.2072V63.4755C75.2193 63.5184 73.8468 63.6899 72.5173 64.0116V40.4012C72.5173 39.2218 71.5094 38.364 70.33 38.364H62.0309C60.8515 38.364 59.8651 39.2003 59.8651 40.4012V72.4178C57.3132 75.9991 55.9407 80.3094 55.9622 84.727C55.9622 96.4785 65.4835 106 77.2136 106C88.9652 106 98.4865 96.4785 98.4865 84.7484C98.4865 77.7146 95.034 71.1526 89.244 67.1854ZM80.8806 31.5018H84.9551V64.9123C83.647 64.3976 82.2745 64.0116 80.8806 63.7972V31.5018ZM64.1539 42.6529H68.2284V65.4913C66.7916 66.156 65.4192 66.9709 64.1539 67.9359V42.6529ZM91.8388 93.3691C88.7722 98.5372 83.2181 101.69 77.2351 101.69C67.8638 101.69 60.2725 94.0767 60.2725 84.727C60.2725 77.8647 64.4113 71.6673 70.7588 69.051C71.0162 69.0082 71.2521 68.9009 71.4665 68.7723C73.3107 68.086 75.2836 67.7429 77.2565 67.7429C77.7069 67.7429 78.1357 67.7644 78.5861 67.8073H78.6075C81.1809 68.0003 83.6899 68.7937 85.8986 70.1233C93.9615 74.9054 96.6209 85.306 91.8388 93.3691Z" fill="#FF0000" fill-opacity="0.4"/>
<path d="M77.2569 82.9901C75.7558 82.9901 74.5549 81.7892 74.5549 80.2881C74.5549 78.787 75.7344 77.5861 77.2355 77.5647C78.7366 77.5647 79.9375 78.787 79.9375 80.2667C79.9375 81.4461 80.9025 82.4111 82.0819 82.4111C83.2828 82.4111 84.2478 81.4676 84.2692 80.2667C84.2692 77.3931 82.5108 74.7984 79.8302 73.7476V71.9677C79.8302 70.7882 78.8652 69.8232 77.6858 69.8232C76.5064 69.8232 75.5414 70.7882 75.5414 71.9677V73.5117C71.81 74.4767 69.5584 78.2938 70.5234 82.0251C71.2954 85.1131 74.0617 87.2576 77.2355 87.2576C78.7151 87.2576 79.916 88.4799 79.916 89.9596C79.916 91.4393 78.6937 92.6401 77.214 92.6401C75.7344 92.6401 74.5335 91.4178 74.5335 89.9381C74.5335 88.7587 73.5685 87.7937 72.389 87.7937C71.2096 87.7937 70.266 88.7373 70.2875 89.9167V89.9381C70.3089 93.1119 72.4534 95.8997 75.5199 96.6932V97.6582C75.5199 98.8376 76.4849 99.8026 77.6644 99.8026C78.8438 99.8026 79.8088 98.8376 79.8088 97.6582V96.4787C83.4115 95.0634 85.1699 91.0104 83.776 87.4291C82.7252 84.7486 80.1305 82.9901 77.2569 82.9901Z" fill="#FF0000" fill-opacity="0.4"/>
<path d="M36.705 55.5195H28.3417C27.1623 55.5195 26.1973 56.4845 26.1973 57.664V91.3318C26.1973 92.5112 27.1623 93.4762 28.3417 93.4762H36.705C37.8845 93.4762 38.8495 92.5112 38.8495 91.3318V57.664C38.8495 56.4845 37.8845 55.5195 36.705 55.5195ZM34.5606 89.4018H30.4862V59.8084H34.5606V89.4018Z" fill="#FF0000" fill-opacity="0.4"/>
<path d="M53.6465 50.5874H45.2831C44.1037 50.5874 43.1387 51.5524 43.1387 52.7318V91.5463C43.1387 92.7258 44.1037 93.6908 45.2831 93.6908H53.6465C54.8259 93.6908 55.7909 92.7258 55.7909 91.5463V52.7318C55.7909 51.5524 54.8259 50.5874 53.6465 50.5874ZM51.502 89.4019H47.4276V54.8763H51.502V89.4019Z" fill="#FF0000" fill-opacity="0.4"/>
<path d="M19.7637 73.9619H11.4003C10.2209 73.9619 9.25586 74.9269 9.25586 76.1064V91.332C9.25586 92.5114 10.2209 93.4764 11.4003 93.4764H19.7637C20.9431 93.4764 21.9081 92.5114 21.9081 91.332V76.1064C21.9081 74.9269 20.9431 73.9619 19.7637 73.9619ZM17.6192 89.4019H13.5448V78.2508H17.6192V89.4019Z" fill="#FF0000" fill-opacity="0.4"/>
<path d="M88.9222 0L74.2542 0.0214445C73.0748 0 72.1098 0.965001 72.0883 2.14445C72.0669 3.32389 73.0319 4.28889 74.2113 4.31034C74.2328 4.31034 74.2328 4.31034 74.2542 4.31034L83.7541 4.28889L60.4869 27.4704L52.3594 19.4072C51.952 19.0212 51.3944 18.8282 50.8369 18.8497C50.2793 18.8282 49.7217 19.0212 49.3143 19.4072L8.14092 60.5806C7.30459 61.417 7.30459 62.768 8.14092 63.5828C8.54837 63.9903 9.08448 64.2047 9.66348 64.2047C10.2425 64.2047 10.7786 63.9903 11.186 63.5828L50.8583 23.9106L58.9857 32.1024C59.3717 32.5313 59.9293 32.7671 60.5083 32.7886C61.0873 32.7671 61.6234 32.5098 62.0309 32.1024L86.7778 7.33401L86.7563 16.8768C86.7563 18.0777 87.6999 19.0427 88.9008 19.0856C90.1017 19.0641 91.0452 18.0777 91.0452 16.8768L91.0667 2.16589C91.0667 0.986446 90.1017 0 88.9222 0Z" fill="#FF0000" fill-opacity="0.4"/>
</g>
<defs>
<clipPath id="clip0">
<rect width="106" height="106" fill="white"/>
</clipPath>
</defs>
</svg>
