<svg width="20" height="19" viewBox="0 0 20 19" fill="none" xmlns="http://www.w3.org/2000/svg">
<path d="M0.384521 0V14.6154V19H19.6153V14.6154V0H0.384521ZM1.15375 0.730769H18.8461V10.4964L14.8753 7.0384C14.7999 6.973 14.7007 6.94048 14.5984 6.94267C14.4964 6.94706 14.4003 6.98981 14.3314 7.06142L10.5645 10.9809L8.74029 9.24788C8.59645 9.1116 8.36645 9.10465 8.21414 9.23181L1.7776 14.6154H1.15375V0.730769ZM18.8461 18.2692H1.15375V15.3462H18.8461V18.2692ZM2.94183 14.6154L8.45106 10.0075L12.4134 13.7713C12.5638 13.9142 12.8068 13.9142 12.9572 13.7713C13.1076 13.6285 13.1076 13.3976 12.9572 13.2547L11.1084 11.4983L14.6395 7.82471L18.8461 11.4877V14.6154H2.94183Z" fill="black"/>
</svg>
